<?xml version="1.0" encoding="utf-8"?>
<!-- Generator: Adobe Illustrator 27.5.0, SVG Export Plug-In . SVG Version: 6.00 Build 0)  -->
<svg version="1.1" id="Layer_1" xmlns="http://www.w3.org/2000/svg" xmlns:xlink="http://www.w3.org/1999/xlink" x="0px" y="0px"
	 viewBox="0 0 288 288" style="enable-background:new 0 0 288 288;" xml:space="preserve">
<g>
	<rect x="0" y="0" style="fill-rule:evenodd;clip-rule:evenodd;fill:#F2F2F2;" width="288" height="288"/>
	<g>
		<g>
			<g>
				<g>
					<linearGradient id="SVGID_1_" gradientUnits="userSpaceOnUse" x1="100.7025" y1="68.4173" x2="100.7025" y2="96.8827">
						<stop  offset="0" style="stop-color:#FFFFFF"/>
						<stop  offset="0.5028" style="stop-color:#FBFBFB"/>
						<stop  offset="1" style="stop-color:#EFF0F0"/>
					</linearGradient>
					<rect x="42.391" y="67.4" style="fill:url(#SVGID_1_);" width="116.622" height="47.055"/>
					
						<linearGradient id="SVGID_00000140718061502498981290000016261439336216822946_" gradientUnits="userSpaceOnUse" x1="100.7025" y1="90.6363" x2="100.7025" y2="115.052">
						<stop  offset="0" style="stop-color:#FFFFFF"/>
						<stop  offset="0.5028" style="stop-color:#FBFBFB"/>
						<stop  offset="1" style="stop-color:#EFF0F0"/>
					</linearGradient>
					
						<rect x="42.391" y="91.58" style="fill:url(#SVGID_00000140718061502498981290000016261439336216822946_);" width="116.622" height="22.875"/>
					<rect x="42.391" y="112.059" style="fill:#00AF83;" width="116.622" height="2.396"/>
				</g>
				<g>
					<path style="fill:#4D4D4D;" d="M65.565,102.006c-0.899,0-1.69-0.129-2.374-0.383c-0.684-0.254-1.245-0.605-1.682-1.055
						c-0.438-0.449-0.793-1.01-1.067-1.682c-0.274-0.672-0.467-1.391-0.579-2.154c-0.111-0.764-0.167-1.625-0.167-2.588v-6.096
						c0-0.961,0.056-1.824,0.167-2.588c0.111-0.764,0.304-1.481,0.579-2.152c0.275-0.672,0.63-1.23,1.067-1.676
						c0.438-0.445,0.998-0.795,1.682-1.051c0.683-0.254,1.475-0.381,2.374-0.381c0.994,0,1.853,0.146,2.576,0.441
						c0.724,0.293,1.302,0.727,1.736,1.299c0.433,0.574,0.759,1.238,0.978,1.992c0.218,0.756,0.348,1.639,0.388,2.648
						c0.008,0.152,0.012,0.387,0.012,0.703h-3.054v-0.68c-0.008-0.42-0.023-0.781-0.047-1.078c-0.024-0.299-0.068-0.607-0.131-0.926
						c-0.064-0.316-0.157-0.582-0.28-0.793c-0.123-0.211-0.278-0.404-0.465-0.584c-0.187-0.18-0.423-0.311-0.709-0.395
						c-0.287-0.082-0.621-0.125-1.002-0.125c-0.493,0-0.917,0.08-1.271,0.238c-0.354,0.16-0.63,0.365-0.829,0.615
						s-0.352,0.586-0.459,1.008c-0.107,0.422-0.177,0.834-0.209,1.234c-0.032,0.402-0.047,0.896-0.047,1.484v7.635
						c0,0.51,0.021,0.971,0.065,1.383c0.043,0.414,0.129,0.826,0.256,1.234c0.127,0.41,0.292,0.754,0.495,1.033
						c0.203,0.277,0.473,0.502,0.811,0.674c0.338,0.17,0.734,0.256,1.187,0.256c0.453,0,0.843-0.088,1.169-0.262
						c0.326-0.176,0.583-0.398,0.769-0.668c0.187-0.271,0.334-0.617,0.441-1.039c0.107-0.42,0.177-0.83,0.209-1.229
						c0.032-0.396,0.047-0.857,0.047-1.383v-0.764h3.054v0.764c0,1.105-0.098,2.076-0.292,2.91
						c-0.195,0.836-0.509,1.572-0.942,2.213c-0.434,0.641-1.022,1.127-1.766,1.461C67.511,101.838,66.614,102.006,65.565,102.006z"
						/>
					<path style="fill:#4D4D4D;" d="M78.793,102.006c-1.074,0-1.994-0.164-2.761-0.49c-0.768-0.326-1.378-0.803-1.831-1.432
						c-0.453-0.627-0.783-1.365-0.99-2.213c-0.207-0.846-0.31-1.83-0.31-2.951v-7.754c0-1.121,0.104-2.098,0.31-2.934
						c0.207-0.834,0.537-1.561,0.99-2.176c0.453-0.617,1.063-1.08,1.831-1.391c0.767-0.311,1.688-0.465,2.761-0.465
						c2.083,0,3.586,0.596,4.508,1.789c0.922,1.193,1.384,2.918,1.384,5.176v7.754c0,1.105-0.105,2.082-0.316,2.928
						c-0.211,0.848-0.543,1.586-0.996,2.219c-0.453,0.633-1.063,1.113-1.831,1.443C80.775,101.84,79.858,102.006,78.793,102.006z
						 M76.568,98.533c0.409,0.645,1.151,0.967,2.225,0.967c1.073,0,1.815-0.322,2.224-0.967c0.41-0.643,0.615-1.594,0.615-2.85
						v-9.279c0-1.242-0.203-2.168-0.608-2.779c-0.406-0.613-1.149-0.92-2.23-0.92c-1.081,0-1.825,0.307-2.23,0.92
						c-0.406,0.611-0.608,1.537-0.608,2.779v9.279C75.954,96.939,76.159,97.891,76.568,98.533z"/>
					<path style="fill:#4D4D4D;" d="M87.357,101.791V80.416h4.222l3.03,16.365l3.03-16.365h4.223v21.375h-3.054V84.924
						l-3.054,16.867h-2.29L90.41,84.924v16.867H87.357z"/>
					<path style="fill:#4D4D4D;" d="M105.058,101.791V80.416h3.054v21.375H105.058z"/>
					<path style="fill:#4D4D4D;" d="M111.379,101.791V80.416h2.29l5.344,13.215V80.416h3.053v21.375h-2.17l-5.463-14.219v14.219
						H111.379z"/>
					<path style="fill:#4D4D4D;" d="M130.845,102.006c-0.978,0-1.827-0.141-2.546-0.418c-0.72-0.279-1.306-0.656-1.759-1.133
						c-0.454-0.479-0.815-1.086-1.085-1.826c-0.271-0.738-0.458-1.518-0.561-2.338c-0.104-0.818-0.155-1.76-0.155-2.826v-5.416
						c0-5.232,2.076-7.848,6.227-7.848c0.994,0,1.856,0.148,2.588,0.447c0.731,0.299,1.324,0.732,1.777,1.307
						c0.454,0.572,0.795,1.242,1.026,2.01s0.366,1.656,0.406,2.666c0.008,0.143,0.012,0.361,0.012,0.654h-3.053v-0.643
						c-0.008-0.502-0.034-0.934-0.078-1.295c-0.044-0.361-0.123-0.717-0.239-1.068c-0.115-0.35-0.273-0.633-0.471-0.852
						c-0.199-0.219-0.463-0.395-0.793-0.525c-0.33-0.131-0.722-0.197-1.175-0.197c-0.621,0-1.144,0.113-1.569,0.34
						c-0.425,0.227-0.751,0.557-0.978,0.99c-0.227,0.434-0.388,0.912-0.483,1.432c-0.096,0.521-0.143,1.127-0.143,1.818v6.871
						c0,0.51,0.016,0.969,0.047,1.377c0.032,0.41,0.085,0.828,0.161,1.254c0.076,0.426,0.187,0.793,0.334,1.104
						c0.147,0.309,0.33,0.59,0.549,0.84c0.219,0.25,0.493,0.441,0.823,0.572s0.71,0.197,1.139,0.197c0.509,0,0.95-0.1,1.324-0.299
						c0.374-0.197,0.67-0.455,0.889-0.77c0.219-0.313,0.392-0.713,0.519-1.197c0.127-0.486,0.213-0.967,0.257-1.443
						c0.044-0.479,0.066-1.021,0.066-1.635v-0.764h-3.054v-2.266h6.107v10.664h-2.29l-0.763-2.291
						C133.303,101.17,132.285,102.006,130.845,102.006z"/>
				</g>
			</g>
			<g>
				<g>
					
						<linearGradient id="SVGID_00000127029610229188625660000012048370141575553706_" gradientUnits="userSpaceOnUse" x1="207.304" y1="68.4173" x2="207.304" y2="96.8827">
						<stop  offset="0" style="stop-color:#FFFFFF"/>
						<stop  offset="0.5028" style="stop-color:#FBFBFB"/>
						<stop  offset="1" style="stop-color:#EFF0F0"/>
					</linearGradient>
					
						<rect x="168.999" y="67.4" style="fill:url(#SVGID_00000127029610229188625660000012048370141575553706_);" width="76.61" height="47.055"/>
					
						<linearGradient id="SVGID_00000127024523391977558120000005655976753556512171_" gradientUnits="userSpaceOnUse" x1="207.304" y1="90.6363" x2="207.304" y2="115.052">
						<stop  offset="0" style="stop-color:#FFFFFF"/>
						<stop  offset="0.5028" style="stop-color:#FBFBFB"/>
						<stop  offset="1" style="stop-color:#EFF0F0"/>
					</linearGradient>
					
						<rect x="168.999" y="91.58" style="fill:url(#SVGID_00000127024523391977558120000005655976753556512171_);" width="76.61" height="22.875"/>
					<rect x="168.999" y="112.059" style="fill:#00AF83;" width="76.61" height="2.396"/>
				</g>
				<g>
					<path style="fill:#4D4D4D;" d="M186.885,102.006c-1.925,0-3.394-0.564-4.407-1.695c-1.014-1.129-1.581-2.672-1.7-4.627
						l3.053-0.764c0.151,3.053,1.169,4.58,3.054,4.58c1.527,0,2.29-0.764,2.29-2.289c0-0.455-0.061-0.873-0.185-1.26
						c-0.123-0.385-0.312-0.738-0.566-1.061c-0.254-0.322-0.485-0.58-0.692-0.775c-0.207-0.195-0.489-0.436-0.847-0.723
						l-3.817-3.053c-0.7-0.549-1.258-1.246-1.676-2.094c-0.417-0.848-0.626-1.811-0.626-2.893c0-1.574,0.489-2.826,1.467-3.758
						c0.978-0.93,2.274-1.395,3.888-1.395c1.733,0,3.111,0.424,4.133,1.27c1.021,0.848,1.652,2.047,1.891,3.598
						c0.023,0.166,0.051,0.396,0.083,0.691l-3.054,0.764c-0.008-0.137-0.028-0.338-0.059-0.609
						c-0.135-0.971-0.439-1.748-0.913-2.332c-0.473-0.584-1.167-0.877-2.082-0.877c-0.731,0-1.296,0.205-1.693,0.615
						c-0.398,0.41-0.597,0.98-0.597,1.711c0,1.201,0.509,2.207,1.527,3.018l3.817,3.055c2.036,1.645,3.054,3.613,3.054,5.904
						c0,1.566-0.483,2.791-1.449,3.674C189.814,101.564,188.515,102.006,186.885,102.006z"/>
					<path style="fill:#4D4D4D;" d="M199.97,102.006c-1.074,0-1.994-0.164-2.761-0.49c-0.768-0.326-1.378-0.803-1.831-1.432
						c-0.453-0.627-0.783-1.365-0.99-2.213c-0.206-0.846-0.31-1.83-0.31-2.951v-7.754c0-1.121,0.104-2.098,0.31-2.934
						c0.207-0.834,0.537-1.561,0.99-2.176c0.453-0.617,1.063-1.08,1.831-1.391c0.767-0.311,1.688-0.465,2.761-0.465
						c2.083,0,3.586,0.596,4.508,1.789c0.922,1.193,1.384,2.918,1.384,5.176v7.754c0,1.105-0.105,2.082-0.316,2.928
						c-0.211,0.848-0.543,1.586-0.996,2.219c-0.453,0.633-1.063,1.113-1.831,1.443C201.952,101.84,201.036,102.006,199.97,102.006z
						 M197.746,98.533c0.409,0.645,1.151,0.967,2.225,0.967c1.073,0,1.815-0.322,2.224-0.967c0.41-0.643,0.615-1.594,0.615-2.85
						v-9.279c0-1.242-0.203-2.168-0.608-2.779c-0.406-0.613-1.149-0.92-2.23-0.92c-1.082,0-1.825,0.307-2.23,0.92
						c-0.406,0.611-0.608,1.537-0.608,2.779v9.279C197.131,96.939,197.336,97.891,197.746,98.533z"/>
					<path style="fill:#4D4D4D;" d="M214.045,102.006c-1.074,0-1.994-0.164-2.761-0.49c-0.768-0.326-1.378-0.803-1.831-1.432
						c-0.453-0.627-0.783-1.365-0.99-2.213c-0.207-0.846-0.31-1.83-0.31-2.951v-7.754c0-1.121,0.104-2.098,0.31-2.934
						c0.207-0.834,0.537-1.561,0.99-2.176c0.453-0.617,1.064-1.08,1.831-1.391c0.767-0.311,1.688-0.465,2.761-0.465
						c2.083,0,3.586,0.596,4.508,1.789c0.922,1.193,1.384,2.918,1.384,5.176v7.754c0,1.105-0.105,2.082-0.316,2.928
						c-0.211,0.848-0.543,1.586-0.996,2.219c-0.453,0.633-1.063,1.113-1.831,1.443C216.027,101.84,215.11,102.006,214.045,102.006z
						 M211.82,98.533c0.409,0.645,1.151,0.967,2.225,0.967c1.073,0,1.815-0.322,2.224-0.967c0.41-0.643,0.615-1.594,0.615-2.85
						v-9.279c0-1.242-0.203-2.168-0.608-2.779c-0.406-0.613-1.149-0.92-2.23-0.92c-1.082,0-1.825,0.307-2.23,0.92
						c-0.406,0.611-0.608,1.537-0.608,2.779v9.279C211.206,96.939,211.411,97.891,211.82,98.533z"/>
					<path style="fill:#4D4D4D;" d="M222.609,101.791V80.416h2.29l5.344,13.215V80.416h3.053v21.375h-2.17l-5.463-14.219v14.219
						H222.609z"/>
				</g>
			</g>
		</g>
		<g>
			<g>
				<g>
					
						<linearGradient id="SVGID_00000108275201021625859420000010800104962235732618_" gradientUnits="userSpaceOnUse" x1="76.8301" y1="124.388" x2="76.8301" y2="145.2526">
						<stop  offset="0" style="stop-color:#FFFFFF"/>
						<stop  offset="0.5028" style="stop-color:#FBFBFB"/>
						<stop  offset="1" style="stop-color:#EFF0F0"/>
					</linearGradient>
					
						<rect x="42.354" y="123.643" style="fill:url(#SVGID_00000108275201021625859420000010800104962235732618_);" width="68.953" height="34.49"/>
					
						<linearGradient id="SVGID_00000026127336731095317760000004146676883037116075_" gradientUnits="userSpaceOnUse" x1="76.8301" y1="140.6755" x2="76.8301" y2="158.5703">
						<stop  offset="0" style="stop-color:#FFFFFF"/>
						<stop  offset="0.5028" style="stop-color:#FBFBFB"/>
						<stop  offset="1" style="stop-color:#EFF0F0"/>
					</linearGradient>
					
						<rect x="42.354" y="141.367" style="fill:url(#SVGID_00000026127336731095317760000004146676883037116075_);" width="68.953" height="16.766"/>
					<rect x="42.354" y="156.377" style="fill:#00AF83;" width="68.953" height="1.756"/>
				</g>
				<g>
					<path style="fill:#4D4D4D;" d="M60.037,148.744c-0.519,0.182-1.119,0.271-1.801,0.271c-0.682,0-1.282-0.09-1.801-0.271
						c-0.519-0.18-0.946-0.432-1.281-0.756c-0.335-0.324-0.608-0.73-0.817-1.219c-0.21-0.49-0.358-1.02-0.446-1.588
						c-0.087-0.568-0.131-1.211-0.131-1.928v-10.07h2.238v10.07c0,0.484,0.01,0.889,0.03,1.215c0.021,0.326,0.075,0.676,0.162,1.045
						c0.087,0.371,0.208,0.666,0.363,0.889c0.154,0.221,0.373,0.404,0.656,0.551c0.282,0.145,0.625,0.217,1.027,0.217
						c0.402,0,0.745-0.072,1.027-0.217c0.283-0.146,0.501-0.33,0.656-0.551c0.154-0.223,0.275-0.518,0.363-0.889
						c0.087-0.369,0.141-0.719,0.162-1.045c0.021-0.326,0.031-0.73,0.031-1.215v-10.07h2.238v10.07c0,0.717-0.044,1.359-0.131,1.928
						c-0.087,0.568-0.236,1.098-0.446,1.588c-0.21,0.488-0.482,0.895-0.817,1.219C60.982,148.313,60.555,148.564,60.037,148.744z"/>
					<path style="fill:#4D4D4D;" d="M64.828,148.85v-15.666h1.678l3.917,9.686v-9.686h2.238v15.666H71.07l-4.004-10.422v10.422
						H64.828z"/>
					<path style="fill:#4D4D4D;" d="M74.899,148.85v-15.666h3.471c1.638,0,2.793,0.334,3.466,1.004
						c0.673,0.672,1.01,1.828,1.01,3.471v6.156c0,1.719-0.342,2.988-1.027,3.807c-0.685,0.818-1.84,1.229-3.466,1.229H74.899z
						 M77.137,147.17h1.233c0.367,0,0.682-0.033,0.944-0.1c0.262-0.066,0.475-0.189,0.638-0.367
						c0.163-0.178,0.291-0.348,0.384-0.508c0.093-0.16,0.159-0.408,0.197-0.746c0.038-0.338,0.06-0.617,0.066-0.836
						c0.005-0.219,0.009-0.559,0.009-1.018c0-0.152,0-0.266,0-0.342v-5.035c0-0.285-0.002-0.514-0.004-0.682
						c-0.004-0.17-0.012-0.369-0.026-0.6c-0.015-0.23-0.037-0.412-0.065-0.547c-0.029-0.133-0.07-0.283-0.123-0.449
						c-0.053-0.166-0.118-0.297-0.197-0.389c-0.079-0.094-0.175-0.191-0.288-0.293c-0.114-0.102-0.245-0.178-0.393-0.229
						c-0.149-0.049-0.322-0.09-0.521-0.121c-0.198-0.033-0.419-0.049-0.665-0.049h-1.189V147.17z"/>
					<path style="fill:#4D4D4D;" d="M84.804,148.85v-15.666h6.155v1.678h-3.917v5.035h2.798v1.68h-2.798v5.594h3.917v1.68H84.804z"
						/>
					<path style="fill:#4D4D4D;" d="M92.332,148.85v-15.666h2.797c1.667,0,2.923,0.322,3.768,0.969
						c0.845,0.648,1.268,1.723,1.268,3.227c0,0.934-0.166,1.713-0.498,2.344c-0.333,0.629-0.819,1.061-1.46,1.293l2.518,7.834
						h-2.221l-2.255-7.273h-1.679v7.273H92.332z M94.569,139.896h0.56c0.933,0,1.632-0.195,2.098-0.59
						c0.466-0.393,0.7-1.035,0.7-1.928c0-0.891-0.233-1.533-0.7-1.928c-0.466-0.393-1.165-0.59-2.098-0.59h-0.56V139.896z"/>
				</g>
			</g>
			<g>
				<g>
					
						<linearGradient id="SVGID_00000018215154000445988930000017689585022891296182_" gradientUnits="userSpaceOnUse" x1="183.0665" y1="124.388" x2="183.0665" y2="145.2526">
						<stop  offset="0" style="stop-color:#FFFFFF"/>
						<stop  offset="0.5028" style="stop-color:#FBFBFB"/>
						<stop  offset="1" style="stop-color:#EFF0F0"/>
					</linearGradient>
					
						<rect x="120.486" y="123.643" style="fill:url(#SVGID_00000018215154000445988930000017689585022891296182_);" width="125.16" height="34.49"/>
					
						<linearGradient id="SVGID_00000089534312575474900010000010194422418693326742_" gradientUnits="userSpaceOnUse" x1="183.0665" y1="140.6755" x2="183.0665" y2="158.5703">
						<stop  offset="0" style="stop-color:#FFFFFF"/>
						<stop  offset="0.5028" style="stop-color:#FBFBFB"/>
						<stop  offset="1" style="stop-color:#EFF0F0"/>
					</linearGradient>
					
						<rect x="120.486" y="141.367" style="fill:url(#SVGID_00000089534312575474900010000010194422418693326742_);" width="125.16" height="16.766"/>
					<rect x="120.486" y="156.377" style="fill:#00AF83;" width="125.16" height="1.756"/>
				</g>
				<g>
					<path style="fill:#4D4D4D;" d="M132.873,149.006c-0.659,0-1.239-0.092-1.74-0.279c-0.502-0.186-0.912-0.443-1.233-0.773
						c-0.32-0.328-0.581-0.74-0.782-1.232c-0.201-0.492-0.342-1.02-0.424-1.578c-0.082-0.559-0.123-1.191-0.123-1.896v-4.469
						c0-0.705,0.041-1.338,0.123-1.896c0.082-0.559,0.223-1.086,0.424-1.578c0.201-0.492,0.462-0.902,0.782-1.229
						c0.321-0.326,0.731-0.582,1.233-0.77c0.501-0.186,1.081-0.279,1.74-0.279c0.729,0,1.358,0.107,1.888,0.324
						c0.53,0.215,0.955,0.533,1.272,0.953c0.318,0.418,0.557,0.906,0.717,1.459c0.16,0.555,0.255,1.201,0.284,1.941
						c0.005,0.109,0.008,0.283,0.008,0.516h-2.238v-0.498c-0.006-0.309-0.018-0.572-0.035-0.791
						c-0.018-0.219-0.049-0.445-0.096-0.678c-0.046-0.234-0.115-0.428-0.205-0.582c-0.091-0.154-0.204-0.297-0.341-0.428
						c-0.137-0.131-0.31-0.229-0.52-0.289c-0.21-0.061-0.455-0.092-0.734-0.092c-0.361,0-0.672,0.059-0.931,0.176
						c-0.259,0.115-0.462,0.266-0.607,0.449c-0.146,0.184-0.258,0.43-0.337,0.738c-0.079,0.309-0.129,0.611-0.153,0.906
						c-0.023,0.293-0.035,0.656-0.035,1.088v5.596c0,0.373,0.016,0.711,0.048,1.014c0.032,0.303,0.095,0.604,0.188,0.904
						c0.093,0.301,0.214,0.553,0.363,0.756c0.148,0.205,0.347,0.369,0.594,0.494c0.248,0.125,0.538,0.188,0.87,0.188
						s0.618-0.063,0.857-0.191c0.239-0.129,0.427-0.291,0.563-0.49c0.137-0.197,0.245-0.451,0.324-0.76
						c0.079-0.309,0.129-0.609,0.153-0.9c0.023-0.291,0.035-0.629,0.035-1.014v-0.561h2.238v0.561c0,0.809-0.071,1.52-0.214,2.133
						c-0.143,0.611-0.373,1.152-0.691,1.621c-0.317,0.469-0.749,0.826-1.294,1.07C134.299,148.885,133.642,149.006,132.873,149.006z
						"/>
					<path style="fill:#4D4D4D;" d="M142.568,149.006c-0.787,0-1.461-0.119-2.024-0.357c-0.563-0.238-1.01-0.588-1.342-1.049
						c-0.332-0.461-0.574-1.002-0.726-1.623c-0.151-0.619-0.227-1.342-0.227-2.162v-5.684c0-0.822,0.076-1.539,0.227-2.15
						c0.152-0.611,0.394-1.144,0.726-1.596c0.332-0.451,0.78-0.791,1.342-1.018c0.563-0.229,1.237-0.342,2.024-0.342
						c1.527,0,2.628,0.438,3.305,1.311c0.676,0.875,1.014,2.141,1.014,3.795v5.684c0,0.809-0.078,1.525-0.232,2.146
						c-0.154,0.619-0.397,1.162-0.73,1.625c-0.332,0.463-0.779,0.816-1.342,1.059C144.021,148.885,143.349,149.006,142.568,149.006z
						 M140.938,146.463c0.3,0.473,0.843,0.707,1.63,0.707c0.787,0,1.33-0.234,1.63-0.707c0.3-0.473,0.45-1.168,0.45-2.09v-6.801
						c0-0.91-0.148-1.59-0.446-2.037c-0.297-0.449-0.842-0.674-1.635-0.674c-0.793,0-1.338,0.225-1.635,0.674
						c-0.297,0.447-0.446,1.127-0.446,2.037v6.801C140.487,145.295,140.637,145.99,140.938,146.463z"/>
					<path style="fill:#4D4D4D;" d="M148.845,148.85v-15.666h1.678l3.917,9.686v-9.686h2.238v15.666h-1.591l-4.004-10.422v10.422
						H148.845z"/>
					<path style="fill:#4D4D4D;" d="M162.999,149.006c-1.411,0-2.487-0.412-3.23-1.24c-0.743-0.828-1.159-1.959-1.246-3.393
						l2.238-0.559c0.11,2.238,0.856,3.355,2.238,3.355c1.119,0,1.679-0.559,1.679-1.678c0-0.332-0.045-0.639-0.136-0.922
						c-0.09-0.283-0.229-0.543-0.415-0.779c-0.186-0.234-0.355-0.424-0.507-0.568c-0.152-0.143-0.359-0.318-0.621-0.527
						l-2.797-2.238c-0.513-0.402-0.922-0.914-1.229-1.535c-0.306-0.621-0.459-1.326-0.459-2.119c0-1.154,0.358-2.072,1.075-2.754
						c0.717-0.682,1.667-1.023,2.85-1.023c1.271,0,2.28,0.311,3.029,0.932c0.749,0.621,1.211,1.498,1.386,2.635
						c0.018,0.123,0.038,0.293,0.062,0.508l-2.238,0.559c-0.006-0.098-0.021-0.246-0.044-0.445
						c-0.099-0.711-0.322-1.281-0.669-1.709c-0.347-0.428-0.855-0.643-1.526-0.643c-0.536,0-0.95,0.15-1.241,0.451
						c-0.292,0.299-0.437,0.717-0.437,1.254c0,0.879,0.373,1.617,1.119,2.211l2.798,2.238c1.492,1.207,2.238,2.65,2.238,4.328
						c0,1.148-0.355,2.045-1.063,2.693C165.145,148.684,164.193,149.006,162.999,149.006z"/>
					<path style="fill:#4D4D4D;" d="M170.22,148.85v-13.674h-2.798v-1.992h7.834v1.992h-2.798v13.674H170.22z"/>
					<path style="fill:#4D4D4D;" d="M176.366,148.85v-15.666h2.797c1.667,0,2.923,0.322,3.768,0.969
						c0.845,0.648,1.268,1.723,1.268,3.227c0,0.934-0.166,1.713-0.498,2.344c-0.333,0.629-0.819,1.061-1.46,1.293l2.518,7.834
						h-2.221l-2.255-7.273h-1.679v7.273H176.366z M178.604,139.896h0.56c0.933,0,1.632-0.195,2.098-0.59
						c0.466-0.393,0.7-1.035,0.7-1.928c0-0.891-0.233-1.533-0.7-1.928c-0.466-0.393-1.166-0.59-2.098-0.59h-0.56V139.896z"/>
					<path style="fill:#4D4D4D;" d="M192.111,148.744c-0.519,0.182-1.119,0.271-1.801,0.271c-0.682,0-1.282-0.09-1.801-0.271
						c-0.519-0.18-0.946-0.432-1.281-0.756c-0.336-0.324-0.608-0.73-0.817-1.219c-0.21-0.49-0.358-1.02-0.446-1.588
						c-0.087-0.568-0.131-1.211-0.131-1.928v-10.07h2.238v10.07c0,0.484,0.01,0.889,0.03,1.215c0.02,0.326,0.075,0.676,0.162,1.045
						c0.087,0.371,0.208,0.666,0.363,0.889c0.154,0.221,0.372,0.404,0.656,0.551c0.282,0.145,0.625,0.217,1.027,0.217
						c0.402,0,0.745-0.072,1.027-0.217c0.283-0.146,0.501-0.33,0.656-0.551c0.154-0.223,0.275-0.518,0.363-0.889
						c0.087-0.369,0.141-0.719,0.162-1.045c0.021-0.326,0.031-0.73,0.031-1.215v-10.07h2.238v10.07c0,0.717-0.044,1.359-0.131,1.928
						c-0.087,0.568-0.236,1.098-0.446,1.588c-0.21,0.488-0.482,0.895-0.817,1.219C193.057,148.313,192.63,148.564,192.111,148.744z"
						/>
					<path style="fill:#4D4D4D;" d="M200.924,149.006c-0.659,0-1.239-0.092-1.74-0.279c-0.501-0.186-0.912-0.443-1.233-0.773
						c-0.32-0.328-0.581-0.74-0.782-1.232c-0.201-0.492-0.342-1.02-0.424-1.578c-0.082-0.559-0.123-1.191-0.123-1.896v-4.469
						c0-0.705,0.04-1.338,0.123-1.896c0.082-0.559,0.223-1.086,0.424-1.578c0.201-0.492,0.462-0.902,0.782-1.229
						c0.321-0.326,0.731-0.582,1.233-0.77c0.501-0.186,1.081-0.279,1.74-0.279c0.729,0,1.358,0.107,1.888,0.324
						c0.53,0.215,0.955,0.533,1.272,0.953c0.318,0.418,0.557,0.906,0.717,1.459c0.16,0.555,0.255,1.201,0.284,1.941
						c0.005,0.109,0.008,0.283,0.008,0.516h-2.238v-0.498c-0.006-0.309-0.018-0.572-0.035-0.791
						c-0.018-0.219-0.049-0.445-0.096-0.678c-0.046-0.234-0.115-0.428-0.205-0.582c-0.091-0.154-0.204-0.297-0.341-0.428
						c-0.137-0.131-0.31-0.229-0.52-0.289c-0.21-0.061-0.455-0.092-0.734-0.092c-0.361,0-0.672,0.059-0.931,0.176
						c-0.259,0.115-0.462,0.266-0.607,0.449c-0.146,0.184-0.258,0.43-0.337,0.738c-0.079,0.309-0.129,0.611-0.153,0.906
						c-0.023,0.293-0.035,0.656-0.035,1.088v5.596c0,0.373,0.016,0.711,0.048,1.014c0.032,0.303,0.095,0.604,0.188,0.904
						c0.093,0.301,0.214,0.553,0.363,0.756c0.148,0.205,0.347,0.369,0.594,0.494c0.248,0.125,0.538,0.188,0.87,0.188
						c0.332,0,0.618-0.063,0.857-0.191c0.239-0.129,0.427-0.291,0.563-0.49c0.137-0.197,0.245-0.451,0.324-0.76
						s0.129-0.609,0.153-0.9c0.023-0.291,0.035-0.629,0.035-1.014v-0.561h2.238v0.561c0,0.809-0.071,1.52-0.214,2.133
						c-0.143,0.611-0.373,1.152-0.691,1.621c-0.317,0.469-0.749,0.826-1.294,1.07C202.35,148.885,201.693,149.006,200.924,149.006z"
						/>
					<path style="fill:#4D4D4D;" d="M208.25,148.85v-13.674h-2.798v-1.992h7.834v1.992h-2.798v13.674H208.25z"/>
					<path style="fill:#4D4D4D;" d="M214.501,148.85v-15.666h2.238v15.666H214.501z"/>
					<path style="fill:#4D4D4D;" d="M223.173,149.006c-0.787,0-1.461-0.119-2.024-0.357c-0.563-0.238-1.01-0.588-1.342-1.049
						c-0.332-0.461-0.574-1.002-0.726-1.623c-0.151-0.619-0.227-1.342-0.227-2.162v-5.684c0-0.822,0.076-1.539,0.227-2.15
						c0.152-0.611,0.393-1.144,0.726-1.596c0.332-0.451,0.78-0.791,1.342-1.018c0.563-0.229,1.237-0.342,2.024-0.342
						c1.527,0,2.628,0.438,3.305,1.311c0.676,0.875,1.014,2.141,1.014,3.795v5.684c0,0.809-0.078,1.525-0.232,2.146
						c-0.154,0.619-0.398,1.162-0.73,1.625c-0.332,0.463-0.779,0.816-1.342,1.059C224.626,148.885,223.954,149.006,223.173,149.006z
						 M221.543,146.463c0.3,0.473,0.843,0.707,1.63,0.707c0.787,0,1.33-0.234,1.63-0.707c0.3-0.473,0.45-1.168,0.45-2.09v-6.801
						c0-0.91-0.148-1.59-0.446-2.037c-0.297-0.449-0.842-0.674-1.635-0.674c-0.793,0-1.338,0.225-1.635,0.674
						c-0.297,0.447-0.446,1.127-0.446,2.037v6.801C221.092,145.295,221.243,145.99,221.543,146.463z"/>
					<path style="fill:#4D4D4D;" d="M229.451,148.85v-15.666h1.678l3.917,9.686v-9.686h2.238v15.666h-1.591l-4.004-10.422v10.422
						H229.451z"/>
				</g>
			</g>
		</g>
		<g>
			<g>
				<g>
					
						<linearGradient id="SVGID_00000054983916784873124590000002131041638805460657_" gradientUnits="userSpaceOnUse" x1="89.38" y1="167.9405" x2="89.38" y2="200.5011">
						<stop  offset="0" style="stop-color:#FFFFFF"/>
						<stop  offset="0.5028" style="stop-color:#FBFBFB"/>
						<stop  offset="1" style="stop-color:#EFF0F0"/>
					</linearGradient>
					
						<rect x="42.716" y="166.777" style="fill:url(#SVGID_00000054983916784873124590000002131041638805460657_);" width="93.327" height="53.824"/>
					
						<linearGradient id="SVGID_00000023260025216720869460000006439682988808324235_" gradientUnits="userSpaceOnUse" x1="89.38" y1="193.358" x2="89.38" y2="221.2842">
						<stop  offset="0" style="stop-color:#FFFFFF"/>
						<stop  offset="0.5028" style="stop-color:#FBFBFB"/>
						<stop  offset="1" style="stop-color:#EFF0F0"/>
					</linearGradient>
					
						<rect x="42.716" y="194.438" style="fill:url(#SVGID_00000023260025216720869460000006439682988808324235_);" width="93.327" height="26.164"/>
					<rect x="42.716" y="217.861" style="fill:#00AF83;" width="93.327" height="2.74"/>
				</g>
				<g>
					<path style="fill:#4D4D4D;" d="M70.431,206.357c-2.201,0-3.881-0.645-5.041-1.938c-1.16-1.291-1.808-3.055-1.944-5.293
						l3.493-0.873c0.173,3.492,1.337,5.238,3.493,5.238c1.746,0,2.62-0.873,2.62-2.619c0-0.518-0.071-0.998-0.211-1.439
						c-0.141-0.441-0.357-0.846-0.648-1.213c-0.291-0.369-0.555-0.664-0.791-0.887c-0.237-0.223-0.56-0.498-0.969-0.826
						l-4.366-3.492c-0.801-0.629-1.439-1.426-1.917-2.395c-0.478-0.969-0.716-2.072-0.716-3.309c0-1.801,0.56-3.234,1.678-4.297
						c1.119-1.064,2.601-1.598,4.448-1.598c1.982,0,3.559,0.484,4.727,1.453c1.169,0.969,1.89,2.34,2.163,4.113
						c0.027,0.191,0.059,0.455,0.096,0.791l-3.493,0.873c-0.009-0.154-0.032-0.385-0.068-0.695
						c-0.155-1.109-0.503-1.998-1.044-2.666c-0.541-0.67-1.335-1.004-2.381-1.004c-0.837,0-1.483,0.234-1.938,0.703
						c-0.455,0.469-0.682,1.121-0.682,1.957c0,1.375,0.582,2.525,1.747,3.453l4.366,3.492c2.328,1.883,3.493,4.133,3.493,6.754
						c0,1.791-0.553,3.191-1.658,4.201C73.78,205.854,72.295,206.357,70.431,206.357z"/>
					<path style="fill:#4D4D4D;" d="M81.7,206.113v-21.338h-4.366v-3.111h12.224v3.111h-4.366v21.338H81.7z"/>
					<path style="fill:#4D4D4D;" d="M89.408,206.113l5.239-24.449h3.493l5.239,24.449h-3.493L98.577,200h-4.366l-1.31,6.113H89.408z
						 M94.647,197.381h3.493l-1.746-10.479L94.647,197.381z"/>
					<path style="fill:#4D4D4D;" d="M107.758,206.113v-7.859l-5.239-16.59h3.493l3.493,12.225l3.493-12.225h3.493l-5.239,16.59
						v7.859H107.758z"/>
				</g>
			</g>
			<g>
				<g>
					
						<linearGradient id="SVGID_00000090272986983144038740000001131343193167489711_" gradientUnits="userSpaceOnUse" x1="196.3531" y1="167.9405" x2="196.3531" y2="200.5011">
						<stop  offset="0" style="stop-color:#FFFFFF"/>
						<stop  offset="0.5028" style="stop-color:#FBFBFB"/>
						<stop  offset="1" style="stop-color:#EFF0F0"/>
					</linearGradient>
					
						<rect x="147.423" y="166.777" style="fill:url(#SVGID_00000090272986983144038740000001131343193167489711_);" width="97.86" height="53.824"/>
					
						<linearGradient id="SVGID_00000094620174352659616090000006554808257319355802_" gradientUnits="userSpaceOnUse" x1="196.3531" y1="193.358" x2="196.3531" y2="221.2842">
						<stop  offset="0" style="stop-color:#FFFFFF"/>
						<stop  offset="0.5028" style="stop-color:#FBFBFB"/>
						<stop  offset="1" style="stop-color:#EFF0F0"/>
					</linearGradient>
					
						<rect x="147.423" y="194.438" style="fill:url(#SVGID_00000094620174352659616090000006554808257319355802_);" width="97.86" height="26.164"/>
					<rect x="147.423" y="217.861" style="fill:#00AF83;" width="97.86" height="2.74"/>
				</g>
				<g>
					<path style="fill:#4D4D4D;" d="M164.606,206.113v-21.338h-4.366v-3.111h12.224v3.111h-4.366v21.338H164.606z"/>
					<path style="fill:#4D4D4D;" d="M183.802,205.949c-0.81,0.281-1.746,0.422-2.811,0.422c-1.064,0-2.001-0.141-2.811-0.422
						c-0.81-0.281-1.476-0.676-1.998-1.18c-0.523-0.506-0.948-1.141-1.276-1.904c-0.327-0.764-0.559-1.59-0.696-2.477
						c-0.136-0.887-0.205-1.889-0.205-3.008v-15.717h3.493v15.717c0,0.756,0.016,1.387,0.048,1.896
						c0.032,0.51,0.116,1.053,0.253,1.631c0.136,0.578,0.325,1.039,0.566,1.385c0.241,0.346,0.581,0.631,1.023,0.859
						c0.441,0.227,0.976,0.34,1.603,0.34c0.627,0,1.162-0.113,1.603-0.34c0.441-0.229,0.782-0.514,1.023-0.859
						c0.241-0.346,0.43-0.807,0.566-1.385c0.137-0.578,0.221-1.121,0.253-1.631c0.032-0.51,0.048-1.141,0.048-1.896v-15.717h3.493
						v15.717c0,1.119-0.068,2.121-0.205,3.008c-0.136,0.887-0.368,1.713-0.696,2.477c-0.328,0.764-0.753,1.398-1.276,1.904
						C185.277,205.273,184.611,205.668,183.802,205.949z"/>
					<path style="fill:#4D4D4D;" d="M191.278,206.113v-24.449h2.62l6.112,15.117v-15.117h3.493v24.449h-2.483l-6.249-16.264v16.264
						H191.278z"/>
					<path style="fill:#4D4D4D;" d="M206.995,206.113v-24.449h9.605v2.619h-6.112v7.859h4.366v2.619h-4.366v8.73h6.112v2.621
						H206.995z"/>
					<path style="fill:#4D4D4D;" d="M218.741,206.113v-24.449h5.417c2.556,0,4.359,0.523,5.41,1.568
						c1.05,1.047,1.576,2.852,1.576,5.416v9.605c0,2.684-0.534,4.664-1.603,5.941c-1.069,1.279-2.872,1.918-5.41,1.918H218.741z
						 M222.234,203.492h1.924c0.573,0,1.064-0.051,1.474-0.156c0.409-0.104,0.741-0.295,0.996-0.572
						c0.255-0.277,0.455-0.541,0.601-0.791s0.247-0.641,0.307-1.168c0.059-0.527,0.093-0.961,0.102-1.303
						c0.009-0.34,0.014-0.871,0.014-1.59c0-0.236,0-0.412,0-0.531v-7.857c0-0.447-0.002-0.801-0.007-1.064
						c-0.004-0.264-0.018-0.576-0.041-0.936c-0.023-0.359-0.057-0.643-0.102-0.852c-0.046-0.209-0.109-0.443-0.191-0.703
						c-0.082-0.26-0.185-0.461-0.307-0.607c-0.123-0.145-0.273-0.297-0.45-0.457c-0.177-0.158-0.382-0.277-0.614-0.355
						c-0.232-0.076-0.502-0.141-0.812-0.189c-0.31-0.051-0.655-0.076-1.037-0.076h-1.855V203.492z"/>
				</g>
			</g>
		</g>
	</g>
</g>
</svg>
